<svg xmlns="http://www.w3.org/2000/svg" style="display: none;">
  <!-- Clone Repository Icon -->
  <symbol id="icon-clone" viewBox="0 0 24 24">
    <path fill="#88C0D0" d="M13 3c-4.97 0-9 4.03-9 9H1l3.89 3.89.07.14L9 12H6c0-3.87 3.13-7 7-7s7 3.13 7 7-3.13 7-7 7c-1.93 0-3.68-.79-4.94-2.06l-1.42 1.42C8.27 19.99 10.51 21 13 21c4.97 0 9-4.03 9-9s-4.03-9-9-9z"/>
  </symbol>
  
  <!-- Open Project Icon -->
  <symbol id="icon-project" viewBox="0 0 24 24">
    <path fill="#81A1C1" d="M20 6h-8l-2-2H4c-1.1 0-1.99.9-1.99 2L2 18c0 1.1.9 2 2 2h16c1.1 0 2-.9 2-2V8c0-1.1-.9-2-2-2zm0 12H4V8h16v10z"/>
  </symbol>
  
  <!-- Open Folder Icon -->
  <symbol id="icon-folder" viewBox="0 0 24 24">
    <path fill="#EBCB8B" d="M10 4H4c-1.1 0-1.99.9-1.99 2L2 18c0 1.1.9 2 2 2h16c1.1 0 2-.9 2-2V8c0-1.1-.9-2-2-2h-8l-2-2z"/>
  </symbol>
  
  <!-- New Project Icon -->
  <symbol id="icon-new" viewBox="0 0 24 24">
    <path fill="#A3BE8C" d="M19 13h-6v6h-2v-6H5v-2h6V5h2v6h6v2z"/>
  </symbol>
  
  <!-- Recent File Icon -->
  <symbol id="icon-file" viewBox="0 0 24 24">
    <path fill="#D8DEE9" d="M6 2c-1.1 0-1.99.9-1.99 2L4 20c0 1.1.89 2 1.99 2H18c1.1 0 2-.9 2-2V8l-6-6H6zm7 7V3.5L18.5 9H13z"/>
  </symbol>
  
  <!-- Search Icon -->
  <symbol id="icon-search" viewBox="0 0 24 24">
    <path fill="#D8DEE9" d="M15.5 14h-.79l-.28-.27C15.41 12.59 16 11.11 16 9.5 16 5.91 13.09 3 9.5 3S3 5.91 3 9.5 5.91 16 9.5 16c1.61 0 3.09-.59 4.23-1.57l.27.28v.79l5 4.99L20.49 19l-4.99-5zm-6 0C7.01 14 5 11.99 5 9.5S7.01 5 9.5 5 14 7.01 14 9.5 11.99 14 9.5 14z"/>
  </symbol>
</svg>